<svg width="600" height="600" viewBox="0 0 600 600" xmlns="http://www.w3.org/2000/svg">
  <!-- Background -->
  <rect width="600" height="600" fill="#FFFAF5"/>
  
  <!-- Border -->
  <rect x="15" y="15" width="570" height="570" fill="none" stroke="#D2691E" stroke-width="2"/>
  
  <!-- Main scarf body - Orange/Red gradient -->
  <rect x="80" y="150" width="440" height="300" fill="#FF4500" rx="20"/>
  <rect x="90" y="160" width="420" height="280" fill="#FF6347" rx="15"/>
  
  <!-- Traditional block print patterns -->
  <!-- Center medallion -->
  <circle cx="300" cy="300" r="50" fill="#FFD700" opacity="0.8"/>
  <circle cx="300" cy="300" r="40" fill="#8B0000" opacity="0.6"/>
  <circle cx="300" cy="300" r="30" fill="#FFD700" opacity="0.9"/>
  
  <!-- Paisley patterns around center -->
  <g fill="#8B0000" opacity="0.7">
    <ellipse cx="220" cy="250" rx="8" ry="18" transform="rotate(45 220 250)"/>
    <ellipse cx="380" cy="250" rx="8" ry="18" transform="rotate(-45 380 250)"/>
    <ellipse cx="220" cy="350" rx="8" ry="18" transform="rotate(-45 220 350)"/>
    <ellipse cx="380" cy="350" rx="8" ry="18" transform="rotate(45 380 350)"/>
    
    <!-- More paisleys -->
    <ellipse cx="180" cy="300" rx="6" ry="15" transform="rotate(0 180 300)"/>
    <ellipse cx="420" cy="300" rx="6" ry="15" transform="rotate(0 420 300)"/>
    <ellipse cx="300" cy="200" rx="6" ry="15" transform="rotate(90 300 200)"/>
    <ellipse cx="300" cy="400" rx="6" ry="15" transform="rotate(90 300 400)"/>
  </g>
  
  <!-- Border patterns -->
  <g fill="#8B0000" opacity="0.8">
    <!-- Top border -->
    <rect x="100" y="170" width="400" height="15" rx="2"/>
    <g fill="#FFD700" opacity="0.9">
      <circle cx="120" cy="177" r="3"/>
      <circle cx="140" cy="177" r="3"/>
      <circle cx="160" cy="177" r="3"/>
      <circle cx="180" cy="177" r="3"/>
      <circle cx="200" cy="177" r="3"/>
      <circle cx="220" cy="177" r="3"/>
      <circle cx="240" cy="177" r="3"/>
      <circle cx="260" cy="177" r="3"/>
      <circle cx="280" cy="177" r="3"/>
      <circle cx="300" cy="177" r="3"/>
      <circle cx="320" cy="177" r="3"/>
      <circle cx="340" cy="177" r="3"/>
      <circle cx="360" cy="177" r="3"/>
      <circle cx="380" cy="177" r="3"/>
      <circle cx="400" cy="177" r="3"/>
      <circle cx="420" cy="177" r="3"/>
      <circle cx="440" cy="177" r="3"/>
      <circle cx="460" cy="177" r="3"/>
      <circle cx="480" cy="177" r="3"/>
    </g>
    
    <!-- Bottom border -->
    <rect x="100" y="415" width="400" height="15" rx="2"/>
    <g fill="#FFD700" opacity="0.9">
      <circle cx="120" cy="422" r="3"/>
      <circle cx="140" cy="422" r="3"/>
      <circle cx="160" cy="422" r="3"/>
      <circle cx="180" cy="422" r="3"/>
      <circle cx="200" cy="422" r="3"/>
      <circle cx="220" cy="422" r="3"/>
      <circle cx="240" cy="422" r="3"/>
      <circle cx="260" cy="422" r="3"/>
      <circle cx="280" cy="422" r="3"/>
      <circle cx="300" cy="422" r="3"/>
      <circle cx="320" cy="422" r="3"/>
      <circle cx="340" cy="422" r="3"/>
      <circle cx="360" cy="422" r="3"/>
      <circle cx="380" cy="422" r="3"/>
      <circle cx="400" cy="422" r="3"/>
      <circle cx="420" cy="422" r="3"/>
      <circle cx="440" cy="422" r="3"/>
      <circle cx="460" cy="422" r="3"/>
      <circle cx="480" cy="422" r="3"/>
    </g>
  </g>
  
  <!-- Scattered floral motifs -->
  <g fill="#FFD700" opacity="0.7">
    <polygon points="150,220 158,225 150,230 142,225"/>
    <polygon points="450,220 458,225 450,230 442,225"/>
    <polygon points="150,380 158,385 150,390 142,385"/>
    <polygon points="450,380 458,385 450,390 442,385"/>
    
    <!-- Small flowers -->
    <circle cx="250" cy="180" r="4"/>
    <circle cx="350" cy="180" r="4"/>
    <circle cx="250" cy="420" r="4"/>
    <circle cx="350" cy="420" r="4"/>
    
    <!-- Corner flowers -->
    <circle cx="130" cy="190" r="5"/>
    <circle cx="470" cy="190" r="5"/>
    <circle cx="130" cy="410" r="5"/>
    <circle cx="470" cy="410" r="5"/>
  </g>
  
  <!-- Traditional geometric patterns -->
  <g fill="#8B0000" opacity="0.5">
    <!-- Diamond chain pattern -->
    <polygon points="160,270 170,280 160,290 150,280"/>
    <polygon points="440,270 450,280 440,290 430,280"/>
    <polygon points="160,310 170,320 160,330 150,320"/>
    <polygon points="440,310 450,320 440,330 430,320"/>
    
    <!-- Cross patterns -->
    <rect x="195" y="275" width="10" height="3"/>
    <rect x="198" y="272" width="3" height="10"/>
    <rect x="395" y="275" width="10" height="3"/>
    <rect x="398" y="272" width="3" height="10"/>
    
    <rect x="195" y="325" width="10" height="3"/>
    <rect x="198" y="322" width="3" height="10"/>
    <rect x="395" y="325" width="10" height="3"/>
    <rect x="398" y="322" width="3" height="10"/>
  </g>
  
  <!-- Fringe details -->
  <g stroke="#D2691E" stroke-width="2" opacity="0.6">
    <line x1="90" y1="150" x2="90" y2="140"/>
    <line x1="110" y1="150" x2="110" y2="135"/>
    <line x1="130" y1="150" x2="130" y2="140"/>
    <line x1="150" y1="150" x2="150" y2="135"/>
    <line x1="170" y1="150" x2="170" y2="140"/>
    <line x1="190" y1="150" x2="190" y2="135"/>
    <line x1="210" y1="150" x2="210" y2="140"/>
    <line x1="230" y1="150" x2="230" y2="135"/>
    <line x1="250" y1="150" x2="250" y2="140"/>
    <line x1="270" y1="150" x2="270" y2="135"/>
    <line x1="290" y1="150" x2="290" y2="140"/>
    <line x1="310" y1="150" x2="310" y2="135"/>
    <line x1="330" y1="150" x2="330" y2="140"/>
    <line x1="350" y1="150" x2="350" y2="135"/>
    <line x1="370" y1="150" x2="370" y2="140"/>
    <line x1="390" y1="150" x2="390" y2="135"/>
    <line x1="410" y1="150" x2="410" y2="140"/>
    <line x1="430" y1="150" x2="430" y2="135"/>
    <line x1="450" y1="150" x2="450" y2="140"/>
    <line x1="470" y1="150" x2="470" y2="135"/>
    <line x1="490" y1="150" x2="490" y2="140"/>
    <line x1="510" y1="150" x2="510" y2="135"/>
    
    <!-- Bottom fringe -->
    <line x1="90" y1="450" x2="90" y2="460"/>
    <line x1="110" y1="450" x2="110" y2="465"/>
    <line x1="130" y1="450" x2="130" y2="460"/>
    <line x1="150" y1="450" x2="150" y2="465"/>
    <line x1="170" y1="450" x2="170" y2="460"/>
    <line x1="190" y1="450" x2="190" y2="465"/>
    <line x1="210" y1="450" x2="210" y2="460"/>
    <line x1="230" y1="450" x2="230" y2="465"/>
    <line x1="250" y1="450" x2="250" y2="460"/>
    <line x1="270" y1="450" x2="270" y2="465"/>
    <line x1="290" y1="450" x2="290" y2="460"/>
    <line x1="310" y1="450" x2="310" y2="465"/>
    <line x1="330" y1="450" x2="330" y2="460"/>
    <line x1="350" y1="450" x2="350" y2="465"/>
    <line x1="370" y1="450" x2="370" y2="460"/>
    <line x1="390" y1="450" x2="390" y2="465"/>
    <line x1="410" y1="450" x2="410" y2="460"/>
    <line x1="430" y1="450" x2="430" y2="465"/>
    <line x1="450" y1="450" x2="450" y2="460"/>
    <line x1="470" y1="450" x2="470" y2="465"/>
    <line x1="490" y1="450" x2="490" y2="460"/>
    <line x1="510" y1="450" x2="510" y2="465"/>
  </g>
  
  <!-- Fabric texture -->
  <g stroke="#FF4500" stroke-width="0.5" opacity="0.3" fill="none">
    <line x1="90" y1="200" x2="510" y2="200"/>
    <line x1="90" y1="220" x2="510" y2="220"/>
    <line x1="90" y1="380" x2="510" y2="380"/>
    <line x1="90" y1="400" x2="510" y2="400"/>
  </g>
  
  <!-- Title -->
  <rect x="50" y="30" width="500" height="35" fill="#FFFFFF" stroke="#D2691E" stroke-width="2" rx="8"/>
  <text x="300" y="52" font-family="serif" font-size="18" font-weight="bold" text-anchor="middle" fill="#8B0000">Traditional Block Print Cotton Scarf</text>
  
  <!-- Corner decorative elements -->
  <polygon points="40,40 50,30 60,40 50,50" fill="#FFD700"/>
  <polygon points="540,40 550,30 560,40 550,50" fill="#FFD700"/>
  <polygon points="40,560 50,550 60,560 50,570" fill="#FFD700"/>
  <polygon points="540,560 550,550 560,560 550,570" fill="#FFD700"/>
  
  <!-- Fold shadows for realism -->
  <g stroke="#D2691E" stroke-width="1" opacity="0.2">
    <path d="M 150 160 Q 180 180 200 160"/>
    <path d="M 400 440 Q 430 460 450 440"/>
  </g>
</svg>